<svg data-name="Camada 1" xmlns="http://www.w3.org/2000/svg" xmlns:xlink="http://www.w3.org/1999/xlink" viewBox="0 0 188.43 229.33">
  <defs>
    <linearGradient id="a" x1="180.62" y1="322.2" x2="199.65" y2="322.2" gradientUnits="userSpaceOnUse">
      <stop offset="0" stop-color="#6c131e"/>
      <stop offset="1" stop-color="#a9182c"/>
    </linearGradient>
    <linearGradient id="b" x1="39.98" y1="86.54" x2="67.58" y2="86.54" xlink:href="#a"/>
    <linearGradient id="c" x1="187.93" y1="340.41" x2="230.46" y2="340.41" xlink:href="#a"/>
    <linearGradient id="d" x1="160.6" y1="262.13" x2="184.58" y2="262.13" xlink:href="#a"/>
    <linearGradient id="e" x1="21.82" y1="100.12" x2="29.46" y2="100.12" xlink:href="#a"/>
    <linearGradient id="f" x1="8.81" y1="107.04" x2="19.06" y2="107.04" xlink:href="#a"/>
    <linearGradient id="g" x1="4.4" y1="107.49" x2="17.96" y2="107.49" xlink:href="#a"/>
    <linearGradient id="h" x1="155.37" y1="239.07" x2="183.5" y2="239.07" xlink:href="#a"/>
    <linearGradient id="i" x1="20.87" y1="79.16" x2="28.51" y2="79.16" xlink:href="#a"/>
    <linearGradient id="j" x1="5.35" y1="78.4" x2="16.89" y2="78.4" xlink:href="#a"/>
    <linearGradient id="k" x1="0" y1="78.18" x2="17.52" y2="78.18" xlink:href="#a"/>
    <linearGradient id="l" x1="171.12" y1="218.76" x2="196.2" y2="218.76" xlink:href="#a"/>
    <linearGradient id="m" x1="33.56" y1="60.25" x2="41.2" y2="60.25" xlink:href="#a"/>
    <linearGradient id="n" x1="23.24" y1="50.75" x2="32.07" y2="50.75" xlink:href="#a"/>
    <linearGradient id="o" x1="19.63" y1="48.1" x2="34.46" y2="48.1" xlink:href="#a"/>
    <linearGradient id="p" x1="199.2" y1="207.32" x2="216.61" y2="207.32" xlink:href="#a"/>
    <linearGradient id="q" x1="54.03" y1="52.84" x2="61.66" y2="52.84" xlink:href="#a"/>
    <linearGradient id="r" x1="57.51" y1="39.25" x2="58.3" y2="39.25" xlink:href="#a"/>
    <linearGradient id="s" x1="54.32" y1="36.81" x2="61.25" y2="36.81" xlink:href="#a"/>
    <linearGradient id="t" x1="222.81" y1="195.06" x2="240.75" y2="195.06" xlink:href="#a"/>
    <linearGradient id="u" x1="77.66" y1="39.82" x2="85.3" y2="39.82" xlink:href="#a"/>
    <linearGradient id="v" x1="85.84" y1="28.85" x2="93.17" y2="28.85" xlink:href="#a"/>
    <linearGradient id="w" x1="87.94" y1="27.84" x2="96.73" y2="27.84" xlink:href="#a"/>
    <linearGradient id="x" x1="223.84" y1="240.99" x2="251.84" y2="240.99" xlink:href="#a"/>
    <linearGradient id="y" x1="78.52" y1="81.27" x2="86.16" y2="81.27" xlink:href="#a"/>
    <linearGradient id="z" x1="90.17" y1="81.34" x2="101.69" y2="81.34" xlink:href="#a"/>
    <linearGradient id="A" x1="89.69" y1="81.21" x2="107.06" y2="81.21" xlink:href="#a"/>
    <linearGradient id="B" x1="201.17" y1="278.34" x2="219.24" y2="278.34" xlink:href="#a"/>
    <linearGradient id="C" x1="55.75" y1="114.18" x2="63.39" y2="114.18" xlink:href="#a"/>
    <linearGradient id="D" x1="61.64" y1="127.07" x2="66.07" y2="127.07" xlink:href="#a"/>
    <linearGradient id="E" x1="220.71" y1="263.32" x2="246.71" y2="263.32" xlink:href="#a"/>
    <linearGradient id="F" x1="75.27" y1="103.11" x2="82.91" y2="103.11" xlink:href="#a"/>
    <linearGradient id="G" x1="85.03" y1="111.45" x2="94.64" y2="111.45" xlink:href="#a"/>
    <linearGradient id="H" x1="82.85" y1="114.25" x2="98.68" y2="114.25" xlink:href="#a"/>
    <linearGradient id="I" x1="270.29" y1="186.69" x2="290.59" y2="186.69" xlink:href="#a"/>
    <linearGradient id="J" x1="124.25" y1="28.27" x2="130.49" y2="28.27" xlink:href="#a"/>
    <linearGradient id="K" x1="132.92" y1="23.24" x2="141.63" y2="23.24" xlink:href="#a"/>
    <linearGradient id="L" x1="133.68" y1="22.89" x2="145.44" y2="22.89" xlink:href="#a"/>
    <linearGradient id="M" x1="327.48" y1="169.9" x2="337.44" y2="169.9" xlink:href="#a"/>
    <linearGradient id="N" x1="180.19" y1="13.1" x2="184.51" y2="13.1" xlink:href="#a"/>
    <linearGradient id="O" x1="183.73" y1="5.93" x2="186.48" y2="5.93" xlink:href="#a"/>
    <linearGradient id="P" x1="184.71" y1="4.95" x2="188.43" y2="4.95" xlink:href="#a"/>
  </defs>
  <path d="M197.15 386.64s-31.56-58.56 0-128.89" transform="translate(-150.16 -159.82)" stroke-linecap="round" stroke-width="5" stroke="url(#a)" fill="none" stroke-miterlimit="10"/>
  <circle cx="53.78" cy="86.54" r="13.8" fill="url(#b)"/>
  <path d="M187.93 361s3.87-31.59 42.38-46.57c0 0 4.93 61.13-41.26 50.76z" transform="translate(-150.16 -159.82)" fill="url(#c)"/>
  <path d="M167.67 258a8.4 8.4 0 116.12 10.06 8.46 8.46 0 01-3.22-1.59l-9.77 6.08" transform="translate(-150.16 -159.82)" stroke="url(#d)" stroke-width=".75" fill="none" stroke-miterlimit="10"/>
  <circle cx="25.64" cy="100.12" r="3.82" fill="url(#e)"/>
  <path stroke="url(#f)" stroke-width=".75" fill="none" stroke-miterlimit="10" d="M18.87 104.07L9 110.01"/>
  <path stroke="url(#g)" stroke-width=".75" fill="none" stroke-miterlimit="10" d="M17.77 101.29l-11.91 7.23-1.01 3.99 4.51 1.13"/>
  <path d="M169.18 232.84a8.4 8.4 0 11-.51 11.77 8.62 8.62 0 01-1.79-3.12l-11.5-.38" transform="translate(-150.16 -159.82)" stroke="url(#h)" stroke-width=".75" fill="none" stroke-miterlimit="10"/>
  <circle cx="24.69" cy="79.16" r="3.82" fill="url(#i)"/>
  <path stroke="url(#j)" stroke-width=".75" fill="none" stroke-miterlimit="10" d="M16.87 78.68l-11.5-.56"/>
  <path stroke="url(#k)" stroke-width=".75" fill="none" stroke-miterlimit="10" d="M17.5 75.76l-13.92-.62-3.05 2.75 3.11 3.46"/>
  <path d="M187.3 211.71a8.4 8.4 0 11-8.12 8.53 8.45 8.45 0 01.7-3.52l-8.41-7.85" transform="translate(-150.16 -159.82)" stroke="url(#l)" fill="none" stroke-miterlimit="10"/>
  <circle cx="37.38" cy="60.25" r="3.82" fill="url(#m)"/>
  <path stroke="url(#n)" stroke-width=".75" fill="none" stroke-miterlimit="10" d="M31.81 54.75l-8.31-7.99"/>
  <path stroke="url(#o)" stroke-width=".75" fill="none" stroke-miterlimit="10" d="M34.2 52.96l-10.07-9.62-4.12.07.08 4.65"/>
  <path d="M213.84 206.68a8.34 8.34 0 11-8.76-1.85l-.21-11.5" transform="translate(-150.16 -159.82)" stroke="url(#p)" stroke-width=".75" fill="none" stroke-miterlimit="10"/>
  <circle cx="57.84" cy="52.84" r="3.82" fill="url(#q)"/>
  <path stroke="url(#r)" stroke-width=".75" fill="none" stroke-miterlimit="10" d="M57.93 45.01l-.04-11.52"/>
  <path stroke="url(#s)" stroke-width=".75" fill="none" stroke-miterlimit="10" d="M60.88 45.49l-.1-13.93-2.91-2.91-3.29 3.29"/>
  <path d="M239.88 198.22a8.4 8.4 0 11-9.6-6.82 8.47 8.47 0 013.59.19l6.57-9.45" transform="translate(-150.16 -159.82)" stroke="url(#t)" stroke-width=".75" fill="none" stroke-miterlimit="10"/>
  <circle cx="81.48" cy="39.82" r="3.82" fill="url(#u)"/>
  <path stroke="url(#v)" stroke-width=".75" fill="none" stroke-miterlimit="10" d="M86.14 33.53l6.72-9.35"/>
  <path stroke="url(#w)" stroke-width=".75" fill="none" stroke-miterlimit="10" d="M88.25 35.65l8.09-11.35-.65-4.06-4.59.74"/>
  <path d="M238.48 246.93a8.4 8.4 0 11-.1-11.78 8.42 8.42 0 012 3l11.5-.21" transform="translate(-150.16 -159.82)" stroke="url(#x)" stroke-width=".75" fill="none" stroke-miterlimit="10"/>
  <circle cx="82.34" cy="81.27" r="3.82" fill="url(#y)"/>
  <path stroke="url(#z)" stroke-width=".75" fill="none" stroke-miterlimit="10" d="M90.17 81.35l11.52-.03"/>
  <path stroke="url(#A)" stroke-width=".75" fill="none" stroke-miterlimit="10" d="M89.69 84.3l13.93-.09 2.91-2.91-3.28-3.29"/>
  <path d="M206.11 281.52a8.4 8.4 0 1111.13-3.86 8.42 8.42 0 01-2.24 2.81l3.88 10.84" transform="translate(-150.16 -159.82)" stroke="url(#B)" stroke-width=".75" fill="none" stroke-miterlimit="10"/>
  <circle cx="59.57" cy="114.18" r="3.82" fill="url(#C)"/>
  <path stroke="url(#D)" stroke-width=".75" fill="none" stroke-miterlimit="10" d="M62 121.62l3.72 10.9"/>
  <path stroke="#a11e1f" stroke-width=".75" fill="none" stroke-miterlimit="10" d="M59.05 122.11l4.55 13.17 3.69 1.82 2.06-4.16"/>
  <path d="M230.43 271.2a8.4 8.4 0 117.1-9.39 8.41 8.41 0 01-.29 3.58l9.25 6.84" transform="translate(-150.16 -159.82)" stroke="url(#E)" stroke-width=".75" fill="none" stroke-miterlimit="10"/>
  <circle cx="79.09" cy="103.11" r="3.82" fill="url(#F)"/>
  <path stroke="url(#G)" stroke-width=".75" fill="none" stroke-miterlimit="10" d="M85.25 107.95l9.16 6.99"/>
  <path stroke="url(#H)" stroke-width=".75" fill="none" stroke-miterlimit="10" d="M83.08 110l11.1 8.41 4.08-.53-.6-4.61"/>
  <path d="M284.06 190.1a6.85 6.85 0 11-1.93-7.06l8.29-4.46" transform="translate(-150.16 -159.82)" stroke="url(#I)" stroke-width=".75" fill="none" stroke-miterlimit="10"/>
  <circle cx="127.37" cy="28.27" r="3.12" fill="url(#J)"/>
  <path stroke="url(#K)" stroke-width=".75" fill="none" stroke-miterlimit="10" d="M133.1 25.4l8.36-4.33"/>
  <path stroke="url(#L)" stroke-width=".75" fill="none" stroke-miterlimit="10" d="M133.85 27.73l10.09-5.28 1.03-3.2-3.62-1.16"/>
  <path d="M336.79 170.93a4.74 4.74 0 11-4.26-2.73l2.19-6.12" transform="translate(-150.16 -159.82)" stroke="url(#M)" stroke-width=".5" fill="none" stroke-miterlimit="10"/>
  <circle cx="182.35" cy="13.1" r="2.16" fill="url(#N)"/>
  <path stroke="url(#O)" stroke-width=".5" fill="none" stroke-miterlimit="10" d="M183.96 8.98l2.28-6.09"/>
  <path stroke="url(#P)" stroke-width=".5" fill="none" stroke-miterlimit="10" d="M185.42 9.82l2.74-7.37-.96-2.12-2.39 1.08"/>
</svg>
